<?xml version="1.0" encoding="UTF-8" standalone="no"?>
<!-- Created with Inkscape (http://www.inkscape.org/) -->
<svg xmlns:dc="http://purl.org/dc/elements/1.1/" xmlns:cc="http://creativecommons.org/ns#" xmlns:rdf="http://www.w3.org/1999/02/22-rdf-syntax-ns#" xmlns:svg="http://www.w3.org/2000/svg" xmlns="http://www.w3.org/2000/svg" xmlns:sodipodi="http://sodipodi.sourceforge.net/DTD/sodipodi-0.dtd" xmlns:inkscape="http://www.inkscape.org/namespaces/inkscape" version="1.1" id="svg888" width="317.02933" height="299.40677" viewBox="0 0 317.02933 299.40677" sodipodi:docname="mmlogo.svg" inkscape:version="0.92.4 (5da689c313, 2019-01-14)">
  <metadata id="metadata894">
    <rdf:RDF>
      <cc:Work rdf:about="">
        <dc:format>image/svg+xml</dc:format>
        <dc:type rdf:resource="http://purl.org/dc/dcmitype/StillImage"/>
        <dc:title/>
      </cc:Work>
    </rdf:RDF>
  </metadata>
  <defs id="defs892"/>
  <sodipodi:namedview pagecolor="#ffffff" bordercolor="#666666" borderopacity="1" objecttolerance="10" gridtolerance="10" guidetolerance="10" inkscape:pageopacity="0" inkscape:pageshadow="2" inkscape:window-width="1920" inkscape:window-height="1016" id="namedview890" showgrid="false" fit-margin-top="0" fit-margin-left="0" fit-margin-right="0" fit-margin-bottom="0" inkscape:zoom="2" inkscape:cx="234.87555" inkscape:cy="160.79142" inkscape:window-x="0" inkscape:window-y="27" inkscape:window-maximized="1" inkscape:current-layer="g989"/>
  <g id="g989" transform="translate(385.04215,25.192568)">
    <path style="fill:#ffff64;fill-opacity:1" d="m -120.08491,273.09714 c -13.4334,-4.478 -23.70223,-15.27499 -28.43644,-29.89896 -1.59688,-4.93277 -2.45699,-5.30193 -6.51285,-2.79527 -1.87705,1.16008 -5.69076,2.37903 -8.4749,2.70877 -8.02781,0.95077 -12.78409,-1.43086 -20.80169,-10.41612 -13.36016,-14.97262 -118.66204,-114.33569 -121.05686,-114.22951 -1.27851,0.0567 -3.82511,2.40301 -5.64794,5.20375 -1.71147,2.62964 -1.70856,2.8686 0.0751,6.17253 1.02055,1.89034 7.19303,9.20934 13.71663,16.26444 6.5236,7.05511 13.18796,14.74758 14.80969,17.09439 9.833,14.22939 9.70525,36.69553 -0.29795,52.39757 -4.96607,7.79526 -17.67016,19.13729 -25.98167,23.19609 -11.92341,5.82261 -17.15923,6.80297 -36.49665,6.83369 -14.84876,0.0236 -17.68962,-0.23122 -21.53303,-1.93135 -10.45038,-4.62269 -14.65861,-17.01939 -9.29707,-27.38747 0.82896,-1.60304 4.25747,-5.9433 7.61892,-9.64503 10.62241,-11.69774 11.17097,-16.1442 4.18669,-33.93599 -3.79577,-9.66937 -4.72039,-13.30287 -5.13181,-20.16651 -1.05783,-17.64785 3.55198,-27.57722 21.45317,-46.20936 7.65235,-7.964831 12.08817,-13.329451 11.75011,-14.210431 -0.2987,-0.7784 -5.35773,-5.83007 -11.24229,-11.22593 -12.72905,-11.67194 -26.6339,-26.329523 -30.85267,-32.522857 -5.23933,-7.691568 -6.85156,-13.369925 -6.80266,-23.959333 0.0388,-8.399615 0.41418,-10.368725 3.24085,-17 3.69782,-8.674938 12.03731,-20.101894 17.99268,-24.653963 6.76223,-5.168808 16.5878,-5.581727 23.44931,-0.985457 1.80031,1.20596 4.71318,4.430676 6.47305,7.166037 10.58105,16.44612 12.35223,18.403741 34.98683,38.66974 23.90883,21.406879 56.51485,49.268333 59.64906,50.969403 1.52672,0.82861 2.91514,-0.0832 8.25,-5.41807 3.52789,-3.5279 6.41435,-6.99567 6.41435,-7.70616 0,-0.71049 -2.3625,-3.36784 -5.25,-5.905221 -16.52052,-14.517342 -19.22071,-18.887543 -19.238,-31.136309 -0.0159,-11.238756 2.64985,-17.010059 12.93828,-28.011499 4.19472,-4.485429 8.99825,-10.585446 10.67449,-13.555592 5.70497,-10.108638 12.81433,-13.656698 22.86979,-11.413587 5.14955,1.148729 6.24883,1.981956 17.00544,12.889666 19.50231,19.776276 35.39207,37.558049 38.24371,42.797452 5.98149,10.989973 8.1571,30.86735 4.43444,40.51512 -3.85479,9.99023 -9.89548,12.28193 -30.17815,11.44896 l -14,-0.57495 -10.25,10.47728 c -5.6375,5.7625 -10.25,11.077581 -10.25,11.811281 0,0.73369 9.26982,10.68203 20.5996,22.10742 27.68745,27.92107 31.74356,33.58845 37.93793,53.00844 1.75433,5.5 3.66457,10 4.24499,10 0.58042,0 2.64084,-2.07651 4.57873,-4.61448 7.06515,-9.25294 18.97524,-15.10201 30.80899,-15.13032 6.45055,-0.0154 8.67678,0.45536 14,2.9606 12.52916,5.89658 19.97403,15.217 24.98888,31.2842 3.02048,9.67739 3.24112,27.20682 0.45943,36.5 -4.17149,13.93626 -13.12704,25.09655 -24.21037,30.17067 -6.80009,3.11318 -19.59417,4.09699 -25.90818,1.99223 z m 13.52475,-41.228 c 2.63795,-6.93833 0.0113,-21.97365 -3.71351,-21.25631 -3.88621,0.74841 -5.31511,14.3293 -2.22192,21.11811 1.57336,3.45313 4.64788,3.52473 5.93543,0.1382 z" id="path962" inkscape:connector-curvature="0"/>
    <path sodipodi:nodetypes="cscccscccsscscsssscsssscsssscssccssscssccsccscscsssssssssssss" style="fill:#ff0033;fill-opacity:1" d="m -116.59138,262.4999 c -10.35514,-3.14989 -18.13895,-12.39849 -21.92088,-26.04604 -6.01902,-21.72038 2.01658,-44.53438 18.53205,-52.61464 9.22886,-4.51527 17.13128,-3.2659 27.03557,4.27431 6.13454,4.67026 11.22914,15.16454 13.39236,27.58671 1.35995,7.80938 0.0939,18.58339 -3.20834,27.3029 -3.14362,8.30066 -11.50567,16.66507 -18.83689,18.84221 -5.66751,1.68306 -10.86655,1.91003 -14.99387,0.65455 z m 12.0023,-23.90764 c 3.69833,-3.69833 5.34186,-10.0332 4.75482,-18.3271 -1.10267,-15.57904 -11.58045,-21.17668 -16.98805,-9.07568 -2.46745,5.5216 -2.91111,15.6956 -0.93351,21.40698 1.53057,4.4203 5.72132,8.83778 8.3842,8.83778 1.0673,0 3.21945,-1.27888 4.78254,-2.84198 z m -258.67465,-5.34675 c -2.73555,-1.32253 -4.73945,-6.00861 -3.93688,-9.20631 0.33597,-1.33861 3.99821,-6.03462 8.1383,-10.43557 13.50429,-14.35515 14.56112,-23.13467 5.49742,-45.66939 -5.00362,-12.4403 -5.21041,-13.32374 -4.80308,-20.51979 0.69355,-12.25228 2.98682,-15.97694 22.39801,-36.37808 9.28678,-9.76039 16.88505,-18.289451 16.88505,-18.953461 0,-0.66402 -6.97988,-7.53496 -15.51084,-15.26876 -16.30628,-14.78258 -29.83549,-28.66465 -34.51027,-35.410364 -2.95579,-4.26521 -5.50035,-12.412223 -5.44624,-17.437464 0.08,-7.434902 6.67918,-20.417394 14.95298,-29.41703 7.73677,-8.415487 12.39694,-6.892293 19.78785,6.467725 1.80041,3.254478 5.4847,8.508103 8.1873,11.674723 5.81328,6.811379 38.98881,36.696583 65.03922,58.58867 10.175,8.55081 20.68617,17.48348 23.35815,19.85038 2.67199,2.3669 5.44188,4.30346 6.15531,4.30346 0.71343,0 7.95435,-7.0475 16.09092,-15.66112 l 14.79376,-15.66111 -3.43233,-2.58889 c -7.04601,-5.31454 -26.08963,-23.427638 -27.5013,-26.157507 -1.91741,-3.707857 -1.8529,-8.435235 0.1972,-14.451953 1.23989,-3.638879 3.78819,-7.047582 10.03867,-13.428139 4.89599,-4.997872 9.45639,-10.748987 10.97462,-13.840062 2.86046,-5.823851 5.52354,-8.211219 9.15951,-8.211219 4.53444,0 44.44951,42.639587 50.16293,53.58694 3.28462,6.293584 3.51908,7.383034 3.85305,17.903576 -0.0803,6.196547 1.49031,9.859863 -2.49744,13.474244 -2.70714,2.15584 -3.44116,2.24194 -14.35305,1.68362 -6.325,-0.32362 -13.98116,-0.87888 -17.01368,-1.23391 l -5.51369,-0.6455 -16.6412,17.7816 c -9.15266,9.77988 -16.40949,18.269361 -16.1263,18.865511 0.28319,0.59616 5.97789,5.98758 12.65488,11.98095 16.2503,14.5865 38.995,38.57598 44.1848,46.60297 4.66639,7.21742 8.83652,17.92818 11.01826,28.29981 3.47202,16.50544 0.1106,36.74005 -6.37372,38.36751 -4.14054,1.03921 -6.69604,-0.74259 -16.88889,-11.77566 -5.39025,-5.83459 -20.15046,-20.43844 -32.80046,-32.45302 -12.65,-12.01457 -30.875,-29.33945 -40.5,-38.49974 -26.85965,-25.56281 -50.84882,-46.9389 -52.67685,-46.9389 -0.52867,0 -4.86765,3.99205 -9.64218,8.87123 -7.94603,8.12019 -8.68097,9.20569 -8.68097,12.82186 0,7.75358 2.5455,12.40678 12.79545,23.39022 21.7521,23.30871 22.62754,24.49167 24.72982,33.41668 1.69109,7.17934 0.24005,17.4891 -3.54458,25.18455 -5.66691,11.52276 -20.76603,23.20122 -34.68388,26.82636 -6.72851,1.75256 -34.51727,1.97234 -37.97563,0.30036 z" id="path960" inkscape:connector-curvature="0"/>
    <path sodipodi:nodetypes="cscccscccsssccsssscsssscsssscssccssscssccsccscscsssssssssssssssccsssscsccscssscccsssccssscsssscs" style="fill:#4f4f4f;fill-opacity:1" d="m -116.59138,262.4999 c -10.35514,-3.14989 -18.13895,-12.39849 -21.92088,-26.04604 -6.01902,-21.72038 2.01658,-44.53438 18.53205,-52.61464 9.22886,-4.51527 17.13128,-3.2659 27.03557,4.27431 6.13454,4.67026 11.22914,15.16454 13.39236,27.58671 1.35995,7.80938 0.0939,18.58339 -3.20834,27.3029 -3.14362,8.30066 -11.50567,16.66507 -18.83689,18.84221 -5.66751,1.68306 -10.86655,1.91003 -14.99387,0.65455 z m 13.46584,-16.04054 c 8.23845,-5.09165 11.79557,-21.24256 7.66998,-34.82516 -5.56214,-18.31215 -18.81826,-21.20025 -26.90698,-5.86219 -2.50608,4.75211 -2.72237,6.07589 -2.72237,16.66223 0,12.7461 1.2772,16.62335 7.5383,22.88445 3.77583,3.77584 9.43323,4.22332 14.42107,1.14067 z m -260.13819,-13.21385 c -2.73555,-1.32253 -4.73945,-6.00861 -3.93688,-9.20631 0.33597,-1.33861 3.99821,-6.03462 8.1383,-10.43557 13.50429,-14.35515 14.56112,-23.13467 5.49742,-45.66939 -5.00362,-12.4403 -5.21041,-13.32374 -4.80308,-20.51979 0.69355,-12.25228 2.98682,-15.97694 22.39801,-36.37808 9.28678,-9.76039 16.88505,-18.289451 16.88505,-18.953461 0,-0.66402 -6.97988,-7.53496 -15.51084,-15.26876 -16.30628,-14.78258 -29.83549,-28.66465 -34.51027,-35.410364 -2.95579,-4.26521 -5.50035,-12.412223 -5.44624,-17.437464 0.08,-7.434902 6.67918,-20.417394 14.95298,-29.41703 7.73677,-8.415487 12.39694,-6.892293 19.78785,6.467725 1.80041,3.254478 5.4847,8.508103 8.1873,11.674723 5.81328,6.811379 38.98881,36.696583 65.03922,58.58867 10.175,8.55081 20.68617,17.48348 23.35815,19.85038 2.67199,2.3669 5.44188,4.30346 6.15531,4.30346 0.71343,0 7.95435,-7.0475 16.09092,-15.66112 l 14.79376,-15.66111 -3.43233,-2.58889 c -7.04601,-5.31454 -26.08963,-23.427638 -27.5013,-26.157507 -1.91741,-3.707857 -1.8529,-8.435235 0.1972,-14.451953 1.23989,-3.638879 3.78819,-7.047582 10.03867,-13.428139 4.89599,-4.997872 9.45639,-10.748987 10.97462,-13.840062 2.86046,-5.823851 5.52354,-8.211219 9.15951,-8.211219 4.53444,0 44.44951,42.639587 50.16293,53.58694 3.28462,6.293584 3.51908,7.383034 3.85305,17.903576 -0.0803,6.196547 1.5787,9.992446 -2.49744,13.474244 -2.70714,2.15584 -3.44116,2.24194 -14.35305,1.68362 -6.325,-0.32362 -13.98116,-0.87888 -17.01368,-1.23391 l -5.51369,-0.6455 -16.6412,17.7816 c -9.15266,9.77988 -16.40949,18.269361 -16.1263,18.865511 0.28319,0.59616 5.97789,5.98758 12.65488,11.98095 16.2503,14.5865 38.995,38.57598 44.1848,46.60297 4.66639,7.21742 8.83652,17.92818 11.01826,28.29981 3.47202,16.50544 0.1106,36.74005 -6.37372,38.36751 -4.14054,1.03921 -6.69604,-0.74259 -16.88889,-11.77566 -5.39025,-5.83459 -20.15046,-20.43844 -32.80046,-32.45302 -12.65,-12.01457 -30.875,-29.33945 -40.5,-38.49974 -26.85965,-25.56281 -50.84882,-46.9389 -52.67685,-46.9389 -0.52867,0 -4.86765,3.99205 -9.64218,8.87123 -7.94603,8.12019 -8.68097,9.20569 -8.68097,12.82186 0,7.75358 2.5455,12.40678 12.79545,23.39022 21.7521,23.30871 22.62754,24.49167 24.72982,33.41668 1.69109,7.17934 0.24005,17.4891 -3.54458,25.18455 -5.66691,11.52276 -20.76603,23.20122 -34.68388,26.82636 -6.72851,1.75256 -34.51727,1.97234 -37.97563,0.30036 z m 39.67431,-16.08227 c 4.12748,-1.5441 7.41433,-3.95671 13.13876,-9.64412 6.61929,-6.57647 7.79698,-8.28756 8.85824,-12.87028 1.65427,-7.14349 0.60368,-13.1894 -3.10223,-17.85268 -1.65523,-2.08284 -8.65136,-9.80738 -15.54695,-17.16563 -8.57106,-9.14614 -13.32083,-15.08978 -15.01368,-18.78746 -1.36193,-2.97485 -2.88411,-5.40882 -3.38261,-5.40882 -1.38574,0 -4.62303,6.99351 -5.4013,11.66841 -0.59778,3.59073 0.0141,5.93662 4.41494,16.92764 5.77067,14.412 7.62124,24.06265 6.12601,31.94695 -1.32046,6.96273 -4.61392,15.42766 -7.55174,19.40966 -1.35767,1.84021 -2.20314,3.77518 -1.87882,4.29993 0.88566,1.43303 12.98252,-0.14549 19.33938,-2.5236 z m 153.43295,-10.61321 c 1.89094,-3.05959 -5.12344,-25.99131 -10.27461,-33.5902 -9.72697,-14.34899 -48.5718,-51.25981 -93.69022,-89.025581 -16.82045,-14.07933 -38.12773,-32.846614 -59.04168,-52.003456 -4.99293,-4.57345 -11.06793,-11.266877 -13.5,-14.874281 -2.43206,-3.607405 -5.16918,-6.573171 -6.08248,-6.590591 -2.41152,-0.04599 -6.8558,9.417924 -6.76917,14.414672 0.0995,5.736651 0.48821,6.412965 9.66199,16.809497 7.78071,8.817788 22.11988,21.943839 63.76773,58.37289 23.79348,20.81197 27.31088,24.10594 92,86.15606 12.1,11.60638 22.31094,21.12786 22.69098,21.15885 0.38004,0.031 0.9369,-0.34154 1.23746,-0.82786 z m 2.76838,-153.115781 c -0.63036,-7.276985 -2.48299,-10.357963 -12.58003,-20.920927 -5.56424,-5.820989 -12.79273,-13.842841 -16.06333,-17.826337 -3.2706,-3.983496 -6.79345,-7.511517 -7.82855,-7.840047 -1.42575,-0.452516 -3.6947,1.303897 -9.35914,7.244992 -12.93025,13.561774 -12.99593,13.904375 -4.11577,21.467423 3.4375,2.927646 8.725,7.544778 11.75,10.260292 8.9233,8.010367 19.52742,11.6299 33,11.263984 l 5.5,-0.14938 z" id="path958" inkscape:connector-curvature="0"/>
  </g>
  <g id="g946" transform="translate(-28.912498,-78.127005)"/>
</svg>